<?xml version="1.0" standalone="no"?>
<!DOCTYPE svg PUBLIC "-//W3C//DTD SVG 20010904//EN"
 "http://www.w3.org/TR/2001/REC-SVG-20010904/DTD/svg10.dtd">
<svg version="1.0" xmlns="http://www.w3.org/2000/svg"
 width="260.000000pt" height="260.000000pt" viewBox="0 0 260.000000 260.000000"
 preserveAspectRatio="xMidYMid meet">
<metadata>
Created by potrace 1.11, written by Peter Selinger 2001-2013
</metadata>
<g transform="translate(0.000000,260.000000) scale(0.100000,-0.100000)"
fill="#000000" stroke="none">
<path d="M1211 2523 c12 -14 12 -16 -1 -11 -8 3 -22 2 -31 -3 -11 -6 -21 -4
-28 5 -7 8 -36 13 -79 14 -46 1 -62 -2 -52 -8 11 -7 6 -10 -20 -9 -30 0 -32 2
-15 10 15 7 12 8 -14 4 -19 -3 -42 -12 -51 -20 -9 -8 -26 -15 -39 -15 -36 0
-90 -27 -117 -59 -14 -17 -25 -33 -24 -36 0 -3 -6 -13 -15 -21 -8 -8 -18 -27
-22 -42 -3 -15 -14 -33 -24 -40 -14 -9 -17 -22 -13 -53 4 -30 2 -39 -7 -33 -8
5 -10 2 -6 -8 3 -9 -1 -24 -8 -35 -17 -21 -19 -37 -5 -28 14 9 13 3 -10 -46
-24 -54 -25 -106 -3 -131 14 -16 16 -42 15 -186 -1 -105 3 -189 11 -227 l13
-60 18 38 c10 20 32 47 48 59 27 19 38 20 128 14 87 -6 98 -5 104 10 12 32
-19 49 -87 48 -34 -1 -71 -4 -82 -7 -11 -3 -34 -6 -51 -6 -25 -1 -35 -8 -47
-32 -8 -17 -17 -27 -21 -21 -3 5 -4 65 -1 133 6 210 58 354 161 448 71 65 116
85 168 76 58 -10 74 -9 141 9 42 12 79 15 125 10 36 -3 66 -6 67 -6 1 0 22 -6
45 -13 100 -32 154 -56 168 -77 21 -31 60 -149 53 -161 -3 -6 -2 -7 4 -4 6 4
30 -13 54 -36 37 -35 45 -50 46 -80 1 -20 -2 -35 -6 -32 -20 12 20 -94 46
-121 31 -34 63 -126 88 -256 17 -86 20 -225 5 -248 -5 -9 -5 -19 2 -27 8 -10
6 -13 -6 -13 -9 0 -16 -8 -16 -18 0 -10 -6 -27 -14 -38 -8 -11 -17 -41 -21
-66 -5 -34 -11 -45 -21 -41 -9 3 -12 0 -9 -9 8 -19 -36 -89 -52 -83 -7 2 -15
0 -18 -6 -4 -5 -10 -7 -15 -4 -4 3 -6 -4 -3 -15 7 -25 -5 -26 -23 -2 -13 16
-14 16 -8 0 3 -10 2 -18 -4 -18 -6 0 -8 -9 -5 -20 3 -12 -1 -22 -11 -26 -9 -3
-13 -10 -10 -15 10 -16 -9 -9 -22 8 -12 17 -13 17 -14 -3 0 -12 -7 -28 -16
-35 -14 -12 -20 -9 -45 21 -16 19 -29 41 -29 50 0 8 -15 39 -33 69 -22 38 -39
55 -55 56 -12 1 -28 9 -35 18 -6 9 -27 18 -46 20 -43 5 -76 51 -50 70 29 22
57 99 29 82 -5 -3 -7 -12 -4 -19 9 -23 -12 -27 -31 -6 -23 25 -50 25 -123 1
-56 -18 -98 -20 -141 -6 -33 10 -37 -20 -7 -56 30 -35 28 -39 -31 -92 -18 -16
-33 -35 -33 -43 0 -8 -13 -22 -28 -32 -17 -10 -27 -23 -24 -32 3 -8 1 -12 -3
-8 -14 13 -40 -35 -36 -65 1 -17 -1 -27 -7 -23 -5 3 -13 -4 -17 -17 -4 -13 -8
-17 -12 -9 -2 6 -9 10 -14 6 -5 -3 -9 -1 -9 5 0 6 -7 8 -15 5 -11 -5 -13 -2
-9 10 3 9 1 16 -6 16 -6 0 -8 5 -4 12 4 7 3 8 -4 4 -11 -7 -43 51 -47 86 -3
28 -12 32 -20 9 -3 -12 -10 -21 -15 -21 -16 0 -20 -50 -7 -73 12 -18 15 -52 8
-89 0 -4 -9 -5 -18 -1 -12 4 -11 0 5 -11 21 -16 32 -44 13 -32 -5 4 -8 -10 -6
-31 4 -55 4 -55 14 -49 10 7 21 -23 28 -79 2 -22 9 -45 14 -51 7 -8 6 -14 -3
-17 -10 -4 -10 -7 1 -15 7 -5 10 -15 6 -21 -4 -7 -1 -18 5 -26 7 -8 10 -22 6
-30 -3 -9 4 -21 19 -31 23 -15 28 -35 13 -59 -11 -19 10 -54 31 -50 11 2 22
-2 24 -9 5 -14 -127 -91 -228 -133 -93 -39 -220 -95 -224 -99 -2 -2 147 -4
332 -4 293 0 337 2 337 15 0 8 7 15 15 15 9 0 15 9 15 25 0 15 6 25 14 25 18
0 78 -25 72 -31 -2 -2 10 -5 27 -6 18 -1 43 -3 57 -5 14 -3 35 1 47 9 18 11
32 11 68 2 35 -9 48 -9 60 1 8 7 30 12 50 12 19 0 35 3 35 7 0 3 20 15 45 26
25 11 45 24 45 28 0 5 4 6 9 2 5 -3 12 -1 16 5 3 5 15 10 26 10 12 0 17 4 13
11 -4 7 -1 10 7 7 8 -3 12 -12 10 -19 -2 -8 -6 -42 -8 -76 l-4 -63 481 0 480
0 0 45 c0 56 18 44 -436 289 -60 33 -116 125 -154 253 -7 23 -22 52 -32 63
-15 16 -17 24 -8 34 6 8 8 28 5 45 -4 24 -2 29 9 25 11 -4 13 0 9 15 -3 12
-10 21 -15 21 -6 0 -8 9 -5 20 3 11 2 18 -3 15 -4 -3 -10 2 -13 10 -4 9 -1 12
7 9 8 -3 18 0 22 8 12 19 12 48 1 48 -6 0 -7 3 -4 7 4 3 1 13 -6 21 -10 13 -9
14 1 8 11 -7 12 -4 3 13 -7 12 -9 27 -5 33 4 6 3 8 -4 4 -24 -15 -16 20 10 42
29 25 39 58 14 49 -10 -4 -18 5 -25 24 -6 17 -14 28 -19 25 -5 -3 -9 16 -9 42
0 26 -4 58 -8 72 -8 23 -7 24 9 10 17 -13 18 -12 13 20 -3 19 -8 43 -12 52 -4
11 2 26 19 44 21 24 32 27 74 25 42 -2 50 1 54 17 16 59 -59 46 -123 -20 -29
-30 -40 -37 -44 -25 -11 26 9 80 30 83 11 2 37 9 57 16 36 12 37 15 49 78 7
39 10 122 7 210 -5 136 -7 149 -37 220 -18 41 -35 85 -38 97 -3 12 -11 28 -19
34 -8 6 -14 26 -14 43 -1 38 -17 68 -52 95 -15 12 -28 33 -30 48 -2 18 -14 33
-38 46 -19 10 -39 25 -45 32 -24 32 -121 95 -138 91 -10 -2 -30 0 -45 4 -15 5
-45 11 -67 14 -22 2 -62 11 -89 20 -45 15 -47 15 -35 -1 12 -14 12 -16 -2 -11
-9 3 -42 9 -75 13 -32 4 -73 16 -90 26 -40 24 -62 26 -43 2z m704 -330 c9 -13
14 -28 10 -31 -7 -8 -75 62 -75 78 0 16 46 -17 65 -47z m-266 -183 c0 -9 -6
-4 -14 10 -19 33 -19 49 0 24 8 -10 14 -26 14 -34z m-409 -884 c0 -11 -19 -15
-25 -6 -3 5 1 10 9 10 9 0 16 -2 16 -4z m-210 -26 c0 -5 -7 -10 -15 -10 -8 0
-15 5 -15 10 0 6 7 10 15 10 8 0 15 -4 15 -10z m138 -15 c-2 -16 -6 -21 -12
-15 -6 6 -14 6 -20 1 -20 -17 -61 -17 -61 -1 0 8 11 16 25 18 14 2 29 8 35 13
18 17 35 9 33 -16z m-98 5 c0 -5 -4 -10 -10 -10 -5 0 -10 5 -10 10 0 6 5 10
10 10 6 0 10 -4 10 -10z m74 -96 c10 -9 41 -17 83 -20 97 -7 138 -17 138 -34
0 -12 -14 -14 -65 -13 l-65 3 34 -15 c18 -8 48 -15 67 -15 33 0 55 -16 38 -29
-13 -9 -16 -31 -8 -50 4 -9 6 -25 5 -36 -1 -11 3 -42 8 -68 8 -44 6 -51 -15
-74 -30 -33 -44 -27 -73 33 -14 27 -26 43 -29 36 -7 -23 -22 -12 -22 17 0 32
-24 48 -45 31 -9 -8 -14 -7 -17 1 -3 8 -9 9 -17 4 -9 -5 -11 -19 -8 -41 3 -19
2 -34 -4 -34 -5 0 -8 3 -8 8 4 22 -3 40 -15 45 -10 4 -13 1 -10 -7 3 -8 1 -17
-5 -21 -7 -4 -11 4 -11 21 0 42 -15 18 -16 -26 -1 -40 -38 -101 -47 -78 -3 7
-6 3 -6 -9 -1 -12 -6 -25 -12 -29 -8 -4 -9 0 -4 15 7 23 -4 28 -22 10 -8 -8
-14 -5 -23 10 -6 12 -15 19 -21 16 -5 -4 -9 -3 -8 2 1 4 -3 21 -9 36 -7 15
-14 47 -17 70 -3 23 -10 43 -15 45 -11 4 14 57 31 68 8 5 9 3 5 -5 -11 -17 63
-3 85 15 8 8 26 14 40 14 13 0 30 4 38 9 9 6 -5 8 -38 6 -28 -1 -58 -8 -67
-16 -13 -10 -17 -10 -25 2 -18 28 -5 43 39 46 34 2 48 10 73 38 35 39 41 41
63 19z m-474 -112 c0 -13 -12 -22 -22 -16 -10 6 -1 24 13 24 5 0 9 -4 9 -8z
m1292 -97 c18 0 19 -15 1 -15 -12 0 -24 7 -27 16 -4 10 -2 13 7 7 6 -4 15 -8
19 -8z m8 -78 c0 -5 -4 -5 -10 -2 -5 3 -10 14 -10 23 0 15 2 15 10 2 5 -8 10
-19 10 -23z m-686 -72 c3 -8 1 -15 -5 -15 -5 0 -13 -9 -17 -21 -8 -20 -8 -20
-19 4 -10 22 -10 24 8 20 15 -4 18 -2 13 11 -3 9 -2 16 4 16 5 0 12 -7 16 -15z
m-129 -25 c18 0 19 -8 2 -23 -23 -22 -57 -38 -57 -27 0 5 5 10 11 10 5 0 8 4
4 10 -3 5 -3 21 1 36 6 22 8 24 16 10 5 -9 16 -16 23 -16z m65 0 c0 -11 -7
-20 -15 -20 -18 0 -19 12 -3 28 16 16 18 15 18 -8z"/>
<path d="M1195 920 c-3 -5 3 -10 14 -10 12 0 21 5 21 10 0 6 -6 10 -14 10 -8
0 -18 -4 -21 -10z"/>
<path d="M1223 1682 c-74 -40 34 -64 147 -33 51 14 146 7 199 -15 18 -8 42
-14 53 -14 17 0 15 4 -10 25 -28 23 -75 36 -139 37 -13 0 -21 4 -18 8 2 4 -41
8 -98 8 -79 1 -109 -3 -134 -16z"/>
<path d="M1308 1510 c-21 -11 -38 -23 -38 -25 0 -5 41 10 70 25 14 8 21 5 34
-15 14 -22 22 -24 91 -22 47 1 74 5 72 12 -7 20 -62 38 -126 42 -52 3 -74 -1
-103 -17z"/>
<path d="M851 1485 c-52 -16 -108 -65 -88 -76 7 -4 22 -6 33 -4 10 2 22 4 26
4 3 1 4 10 1 21 -6 22 8 26 35 9 13 -8 27 -7 55 4 20 9 37 21 37 27 0 8 6 8
20 0 11 -6 20 -7 20 -1 0 10 -54 31 -79 30 -9 0 -36 -6 -60 -14z"/>
</g>
</svg>
